<?xml version="1.0" encoding="utf-8"?>
<!-- Generator: Adobe Illustrator 16.0.0, SVG Export Plug-In . SVG Version: 6.00 Build 0)  -->
<!DOCTYPE svg PUBLIC "-//W3C//DTD SVG 1.1//EN" "http://www.w3.org/Graphics/SVG/1.1/DTD/svg11.dtd">
<svg version="1.1" id="Layer_1" xmlns="http://www.w3.org/2000/svg" xmlns:xlink="http://www.w3.org/1999/xlink" x="0px" y="0px"
	 width="150px" height="150px" viewBox="0 0 150 150" enable-background="new 0 0 150 150" xml:space="preserve">
<path fill="#FFFFFF" d="M119.182,97.854c-0.103-0.408-0.193-0.715-0.267-0.92c-0.067-0.203-0.104-0.307-0.104-0.307l-0.057,0.002
	c0,0-0.027,0.106-0.08,0.315c-0.054,0.207-0.119,0.513-0.234,0.899c-0.231,0.773-0.571,1.9-1.226,3.132
	c-0.641,1.224-1.616,2.534-2.978,3.448c-0.66,0.474-1.439,0.813-2.254,1.062c-0.409,0.121-0.838,0.201-1.276,0.248
	c-0.435,0.056-0.883,0.072-1.333,0.05c-1.801-0.076-3.674-0.793-4.98-1.998c-0.328-0.3-0.619-0.632-0.871-0.988
	c-0.254-0.35-0.481-0.721-0.662-1.123c-0.787-1.654-0.795-3.924-0.797-4.053c0-0.488,0.025-1.004,0.092-1.554
	c0.332,1.214,0.893,2.408,1.646,3.445c0.107,0.146,1.183,1.799,3.466,3.073c0.896,0.554,1.485,0.662,2.305,0.814
	c0.816,0.145,1.666,0.158,2.488,0.004c1.646-0.291,3.148-1.254,4.078-2.537c0.479-0.627,0.803-1.338,1.01-2.031
	c0.187-0.701,0.263-1.387,0.217-2.018c-0.074-1.268-0.52-2.271-0.997-3.012c-0.481-0.748-1.015-1.262-1.474-1.633
	c-0.467-0.369-0.861-0.602-1.137-0.746c-0.279-0.143-0.436-0.207-0.436-0.207s2.93,6.369-2.293,6.982
	c-2.731,0.319-3.969-1.066-4.049-1.152c-0.617-0.703-1.08-1.514-1.369-2.408c-0.221-0.684-0.332-1.416-0.365-2.156
	c0.126,0.082,0.253,0.158,0.379,0.229c0.588,0.316,1.173,0.502,1.705,0.601c0.538,0.103,1.025,0.108,1.454,0.088
	c0.858-0.057,1.477-0.25,1.885-0.403c0.202-0.072,0.354-0.135,0.454-0.183c0.104-0.049,0.154-0.071,0.154-0.071l-0.004-0.029
	c0,0-0.059-0.008-0.168-0.025c-0.109-0.016-0.27-0.033-0.475-0.07c-0.41-0.078-1.007-0.19-1.672-0.459
	c-0.662-0.262-1.385-0.69-1.93-1.34c-0.279-0.313-0.494-0.693-0.668-1.098c-0.08-0.203-0.146-0.418-0.195-0.641
	c-0.051-0.222-0.083-0.447-0.098-0.683c-0.057-0.892,0.189-1.846,0.695-2.569c0.076,0.158,0.154,0.313,0.235,0.469l0.028,0.068
	l0.006,0.008l0.01,0.02l0.02,0.037l0.037,0.074l0.077,0.148c0.058,0.104,0.093,0.178,0.179,0.319
	c0.31,0.532,0.607,0.963,0.974,1.385c0.356,0.421,0.765,0.8,1.207,1.123c0.435,0.328,0.909,0.603,1.397,0.81
	c0.978,0.418,2.002,0.574,2.933,0.512c0.933-0.051,1.77-0.314,2.461-0.666c0.694-0.354,1.245-0.807,1.649-1.26
	c0.407-0.453,0.68-0.902,0.846-1.289c0.166-0.389,0.254-0.697,0.298-0.91c0.034-0.215,0.055-0.328,0.055-0.328
	s-0.067,0.092-0.196,0.264c-0.127,0.166-0.324,0.402-0.604,0.658c-0.282,0.252-0.643,0.521-1.085,0.75
	c-0.44,0.227-0.958,0.418-1.531,0.502c-0.282,0.053-0.583,0.064-0.881,0.066c-0.303-0.016-0.606-0.035-0.905-0.102
	c-0.603-0.134-1.188-0.373-1.688-0.748c-0.508-0.361-0.932-0.845-1.27-1.414c-0.175-0.273-0.324-0.611-0.422-0.867
	c-0.025-0.051-0.068-0.188-0.105-0.283l-0.059-0.156l-0.029-0.078l-0.014-0.041l-0.009-0.02l-0.005-0.01
	c-0.005-0.017,0.044,0.1,0.023,0.047c-0.031-0.174-0.069-0.342-0.088-0.517c-0.1-0.685-0.121-1.346-0.082-2.016
	c0.039-0.671,0.14-1.349,0.282-2.029c0.14-0.68,0.331-1.356,0.517-2.026c0.104-0.336,0.201-0.664,0.299-0.982
	c0.103-0.326,0.199-0.641,0.298-0.943c0.099-0.316,0.194-0.619,0.286-0.908c0.201-0.479,0.396-0.963,0.574-1.459
	c1.25-3.422,1.942-6.937,2.043-10.402c0.099-3.453-1.53-16.529-14.822-19.92c-7.205-11.686-22.829-15.98-36.254-10.669
	C33.945,22.732,29.702,53.405,39.604,59.294c0,1.791,0,4.43,0,4.863c-0.668-0.258-1.514-0.826-2.046-1.674
	c0,0,0.176,1.301,2.043,2.316c0.021,0.698-0.063,1.544-0.367,2.692c-0.507,1.906-1.771,3.349-3.1,4.702
	c-1.517,1.545-2.975,2.513-4.813,4.367c-0.899,0.909-1.466,2.491-0.836,3.76c0.652,1.308,1.707,1.812,2.922,2.595
	c1.328,0.856,1.577,2.617,0.629,3.893c-0.735,0.992-0.643,2.23,0.23,3.098c0.417,0.414,0.896,0.73,1.453,0.92
	c0.308,0.105,0.447,0.229,0.14,0.516c-0.621,0.57-1.117,1.064-1.335,1.854c-0.227,0.826,0.14,1.647,1.079,1.979
	c1.049,0.371,1.528,1.279,1.445,2.398c-0.05,0.67-0.158,1.328-0.24,1.99c-0.17,1.387,0.074,2.748,0.7,3.953
	c1.018,1.963,2.69,2.953,4.96,2.846c2.293-0.109,6.1-2.377,8.331-2.914c14.537-3.512,9.01,19.748,9.264,21.096
	c13.567-10.535,29.479-15.699,29.479-15.699s-8.321-12.323-1.166-19.088c9.301-8.323,12.386-16.032,12.386-16.032
	c3.119-8.379,3.604-15.709,2.234-21.832c0.345,0.469,0.661,0.971,0.943,1.502c1.056,2.037,1.615,4.496,1.643,7.086
	c0.039,2.586-0.377,5.303-1.197,7.888c-0.771,2.512-2.183,4.985-3.673,7.595c-0.769,1.338-1.537,2.677-2.304,4.009
	c-0.782,1.377-1.596,2.784-2.291,4.336c-0.838,1.84-7.287,14.101-1.163,22.241c0.661,0.88,1.334,1.74,2.121,2.468
	c0.788,0.726,1.64,1.351,2.522,1.868c1.769,1.05,3.672,1.619,5.498,1.867c1.838,0.218,3.615,0.107,5.238-0.313
	c0.813-0.205,1.586-0.477,2.311-0.803c0.723-0.332,1.395-0.723,2.01-1.152c1.232-0.859,2.215-1.9,2.945-2.963
	c0.729-1.066,1.207-2.156,1.508-3.17c0.303-1.012,0.42-1.955,0.466-2.783C119.637,99.903,119.391,98.67,119.182,97.854z
	 M39.657,64.177l0.095-0.082v0.118C39.721,64.204,39.689,64.189,39.657,64.177z"/>
</svg>
