<?xml version="1.0" encoding="utf-8"?>
<!-- Generator: Adobe Illustrator 16.0.0, SVG Export Plug-In . SVG Version: 6.00 Build 0)  -->
<!DOCTYPE svg PUBLIC "-http://W3Chttp://DTD SVG 1.1http://EN" "http://www.w3.org/Graphics/SVG/1.1/DTD/svg11.dtd">
<svg version="1.1" id="Layer_1" xmlns="http://www.w3.org/2000/svg" xmlns:xlink="http://www.w3.org/1999/xlink" x="0px" y="0px"
	 width="150px" height="150px" viewBox="0 0 150 150" enable-background="new 0 0 150 150" xml:space="preserve">
<path fill-rule="evenodd" clip-rule="evenodd" fill="none" stroke="#7F7F7F" stroke-width="1.3" stroke-miterlimit="10" d="
	M97.855,35.479c20.316,31.646,3.526,52.943,3.526,52.943c-1.632,2.168-6.654,8.944-6.686,12.121l0.241,6.766
	c0,0-17.324,2.34-36.033,15.115c0,0-2.594-5.359-4.327-7.789c-1.479-1.967-6.174-1.115-8.556-0.813
	c-8.976,0.846-8.514-4.139-7.313-6.25c1.438-2.48,1.625-4.553,0.114-7.027c-1.144-1.87-0.326-3.609,1.687-4.569
	c-0.014,0.001-3.003-0.287-2.783-3.685c0.109-0.807,0.333-2.881,0.226-3.707c-0.107-1.539-4.079-1.618-5.259-2.255
	c-1.311-0.708-1.996-2.255-1.427-3.692c0.593-1.499,1.836-3.188,2.74-4.511c6.91-10.135,4.856-12.079,4.676-12.875
	c0.001,0,0.001,0,0.001-0.001c-0.001,0.001-0.001,0.001-0.001,0.001c-0.587-1.396-0.208-2.823,0.479-3.921
	c1.695-2.71,4.34-9.912,4.633-10.544l0.001-9.868c0,0-2.51-3.259-10.253-3.053c0,0,4.729-4.523,13.789-3.751l-5.229-3.261
	c0,0,5.864,0.423,14.584-0.742C58.919,29.814,89.982,25.227,97.855,35.479z"/>
</svg>
