<?xml version="1.0" encoding="utf-8"?>
<!-- Generator: Adobe Illustrator 16.0.0, SVG Export Plug-In . SVG Version: 6.00 Build 0)  -->
<!DOCTYPE svg PUBLIC "-//W3C//DTD SVG 1.1//EN" "http://www.w3.org/Graphics/SVG/1.1/DTD/svg11.dtd">
<svg version="1.1" id="Layer_1" xmlns="http://www.w3.org/2000/svg" xmlns:xlink="http://www.w3.org/1999/xlink" x="0px" y="0px"
	 width="150px" height="150.001px" viewBox="0 0 150 150.001" enable-background="new 0 0 150 150.001" xml:space="preserve">
<path fill="none" stroke="#7F7F7F" stroke-width="1.3" stroke-miterlimit="10" d="M119.181,97.854
	c-0.102-0.408-0.192-0.715-0.266-0.92c-0.068-0.203-0.104-0.307-0.104-0.307l-0.057,0.002c0,0-0.028,0.107-0.08,0.316
	c-0.054,0.207-0.12,0.512-0.235,0.9c-0.231,0.773-0.571,1.9-1.225,3.131c-0.641,1.223-1.617,2.535-2.977,3.449
	c-0.661,0.473-1.44,0.813-2.255,1.061c-0.409,0.121-0.838,0.201-1.276,0.248c-0.434,0.055-0.883,0.072-1.333,0.049
	c-1.801-0.076-3.674-0.793-4.98-1.998c-0.328-0.299-0.619-0.631-0.871-0.988c-0.255-0.35-0.482-0.721-0.663-1.123
	c-0.787-1.654-0.795-3.924-0.797-4.053c0.001-0.488,0.026-1.004,0.093-1.553c0.331,1.213,0.892,2.408,1.645,3.445
	c0.107,0.146,1.183,1.799,3.465,3.074c0.896,0.553,1.486,0.662,2.305,0.814c0.816,0.145,1.667,0.158,2.489,0.004
	c1.646-0.291,3.148-1.254,4.077-2.537c0.479-0.627,0.803-1.338,1.01-2.031c0.187-0.701,0.263-1.387,0.217-2.018
	c-0.074-1.268-0.519-2.271-0.997-3.012c-0.481-0.748-1.014-1.262-1.474-1.633c-0.466-0.369-0.861-0.602-1.136-0.746
	c-0.28-0.143-0.436-0.207-0.436-0.207s2.93,6.369-2.292,6.982c-2.732,0.32-3.969-1.066-4.049-1.152
	c-0.617-0.703-1.08-1.514-1.369-2.408c-0.221-0.684-0.333-1.416-0.366-2.156c0.126,0.082,0.253,0.158,0.379,0.229
	c0.588,0.316,1.173,0.502,1.705,0.6c0.538,0.102,1.026,0.109,1.454,0.088c0.858-0.057,1.477-0.25,1.885-0.404
	c0.202-0.072,0.354-0.135,0.454-0.182c0.103-0.049,0.154-0.072,0.154-0.072l-0.004-0.029c0,0-0.058-0.008-0.168-0.025
	c-0.109-0.016-0.269-0.033-0.474-0.07c-0.41-0.078-1.007-0.191-1.672-0.459c-0.662-0.262-1.385-0.691-1.93-1.34
	c-0.279-0.313-0.494-0.693-0.667-1.098c-0.081-0.203-0.147-0.418-0.196-0.641c-0.051-0.221-0.083-0.447-0.097-0.682
	c-0.057-0.891,0.189-1.846,0.695-2.57c0.076,0.158,0.154,0.314,0.235,0.469l0.029,0.068l0.005,0.008l0.01,0.02l0.02,0.037
	l0.037,0.074l0.077,0.148c0.058,0.105,0.092,0.178,0.179,0.32c0.309,0.533,0.607,0.963,0.973,1.385
	c0.356,0.42,0.765,0.799,1.207,1.123c0.435,0.328,0.909,0.602,1.397,0.809c0.978,0.418,2.002,0.574,2.933,0.512
	c0.933-0.051,1.77-0.314,2.461-0.666c0.695-0.354,1.245-0.807,1.649-1.26c0.408-0.453,0.68-0.902,0.847-1.289
	c0.165-0.389,0.253-0.697,0.297-0.91c0.035-0.215,0.055-0.328,0.055-0.328s-0.068,0.092-0.196,0.264
	c-0.128,0.166-0.325,0.402-0.604,0.658c-0.282,0.252-0.643,0.521-1.085,0.75c-0.44,0.227-0.958,0.418-1.531,0.502
	c-0.283,0.053-0.583,0.064-0.881,0.066c-0.303-0.016-0.606-0.035-0.906-0.102c-0.602-0.133-1.188-0.373-1.687-0.748
	c-0.508-0.361-0.931-0.844-1.27-1.414c-0.174-0.273-0.323-0.611-0.421-0.867c-0.025-0.051-0.069-0.188-0.105-0.283l-0.059-0.156
	l-0.029-0.078l-0.015-0.041l-0.008-0.02l-0.005-0.01c-0.005-0.016,0.044,0.1,0.023,0.047c-0.031-0.174-0.069-0.342-0.087-0.516
	c-0.1-0.684-0.121-1.346-0.083-2.016c0.039-0.67,0.14-1.348,0.283-2.029c0.14-0.68,0.331-1.357,0.516-2.027
	c0.104-0.336,0.201-0.664,0.299-0.982c0.103-0.326,0.2-0.641,0.298-0.943c0.099-0.316,0.194-0.62,0.286-0.908
	c0.202-0.479,0.396-0.963,0.574-1.459c1.25-3.422,1.943-6.937,2.043-10.402c0.099-3.453-1.53-16.529-14.822-19.92
	c-7.205-11.686-22.829-15.98-36.254-10.669C33.945,22.732,29.702,53.405,39.604,59.294c0,1.791,0,4.43,0,4.863
	c-0.668-0.258-1.514-0.826-2.046-1.674c0,0,0.176,1.301,2.043,2.316c0.021,0.698-0.063,1.544-0.367,2.692
	c-0.507,1.906-1.771,3.349-3.1,4.702c-1.517,1.545-2.975,2.513-4.813,4.367c-0.899,0.91-1.466,2.492-0.836,3.76
	c0.652,1.307,1.707,1.811,2.922,2.594c1.328,0.857,1.577,2.617,0.629,3.893c-0.735,0.992-0.643,2.23,0.23,3.098
	c0.417,0.414,0.896,0.73,1.453,0.92c0.308,0.105,0.447,0.229,0.14,0.516c-0.621,0.57-1.117,1.064-1.335,1.854
	c-0.227,0.826,0.14,1.648,1.079,1.98c1.049,0.371,1.528,1.279,1.445,2.398c-0.05,0.67-0.158,1.328-0.24,1.99
	c-0.17,1.387,0.074,2.748,0.7,3.953c1.018,1.963,2.69,2.953,4.96,2.846c2.293-0.109,6.1-2.377,8.331-2.914
	c14.537-3.512,9.01,19.748,9.264,21.096c13.567-10.535,29.479-15.699,29.479-15.699s-8.321-12.324-1.166-19.088
	c9.301-8.324,12.385-16.033,12.385-16.033c3.12-8.379,3.604-15.709,2.235-21.832c0.345,0.469,0.661,0.971,0.943,1.502
	c1.056,2.037,1.615,4.496,1.643,7.086c0.039,2.586-0.377,5.303-1.197,7.888c-0.771,2.512-2.183,4.985-3.673,7.596
	c-0.768,1.338-1.537,2.676-2.304,4.008c-0.782,1.377-1.596,2.785-2.291,4.336c-0.837,1.84-7.287,14.1-1.163,22.242
	c0.661,0.879,1.334,1.74,2.121,2.467c0.789,0.725,1.64,1.35,2.523,1.869c1.768,1.049,3.672,1.619,5.497,1.867
	c1.838,0.217,3.616,0.107,5.239-0.313c0.813-0.205,1.586-0.477,2.311-0.803c0.722-0.332,1.394-0.723,2.01-1.152
	c1.231-0.859,2.214-1.9,2.944-2.963c0.73-1.066,1.207-2.156,1.508-3.17c0.303-1.012,0.42-1.955,0.466-2.783
	C119.637,99.903,119.39,98.671,119.181,97.854z M39.657,64.177l0.095-0.082v0.118C39.721,64.204,39.689,64.189,39.657,64.177z"/>
</svg>
