<?xml version="1.0" encoding="utf-8"?>
<!-- Generator: Adobe Illustrator 16.0.0, SVG Export Plug-In . SVG Version: 6.00 Build 0)  -->
<!DOCTYPE svg PUBLIC "-//W3C//DTD SVG 1.1//EN" "http://www.w3.org/Graphics/SVG/1.1/DTD/svg11.dtd">
<svg version="1.1" id="Layer_1" xmlns="http://www.w3.org/2000/svg" xmlns:xlink="http://www.w3.org/1999/xlink" x="0px" y="0px"
	 width="50px" height="50px" viewBox="0 0 50 50" enable-background="new 0 0 50 50" xml:space="preserve">
<ellipse fill="none" stroke="#7F7F7F" stroke-width="0.45" stroke-miterlimit="10" cx="24.767" cy="19.222" rx="1.868" ry="2.103"/>
<path fill="none" stroke="#7F7F7F" stroke-width="0.45" stroke-miterlimit="10" d="M27.451,24.282
	c1.012-0.506,7.747-3.581,9.07-5.761c0,0-3.972,3.504-11.755,3.504c-7.785,0-11.756-3.504-11.756-3.504
	c1.322,2.18,8.058,5.255,9.07,5.761c-0.468,2.219,0.739,1.868,0.816,2.842c0.078,0.974-0.934,1.091-1.011,2.842
	c-0.079,1.751,2.41,7.667,2.879,12.179v0.006c0-0.002,0-0.002,0.001-0.002v-0.004c0.469-4.512,2.958-10.428,2.879-12.179
	s-1.09-1.868-1.012-2.842S27.919,26.501,27.451,24.282z"/>
<path fill="none" stroke="#7F7F7F" stroke-width="0.45" stroke-miterlimit="10" d="M24.678,13.02c0-1.613,0.324-2.92,0.324-2.92
	s0.323,1.307,0.323,2.92c0,0.342-0.017,0.666-0.04,0.971c0.445-0.513,1.255-1.622,1.255-2.916c0-1.781-1.538-3.225-1.538-3.225
	s-1.541,1.443-1.541,3.225c0,1.294,0.812,2.403,1.254,2.916C24.693,13.686,24.678,13.361,24.678,13.02z"/>
<path fill="none" stroke="#7F7F7F" stroke-width="0.45" stroke-miterlimit="10" d="M20.613,15.214
	c-0.109-0.16-0.221-0.331-0.328-0.521c-0.512-0.885-0.747-1.704-0.747-1.704s0.592,0.615,1.103,1.499
	c0.107,0.188,0.201,0.37,0.284,0.545c0.082-0.422,0.176-1.287-0.234-1.998c-0.564-0.977-1.865-1.281-1.865-1.281
	s-0.389,1.28,0.175,2.257C19.411,14.722,20.208,15.072,20.613,15.214z"/>
<path fill="none" stroke="#7F7F7F" stroke-width="0.45" stroke-miterlimit="10" d="M29.361,14.488
	c0.511-0.885,1.103-1.501,1.103-1.501s-0.235,0.821-0.747,1.706c-0.107,0.188-0.219,0.359-0.328,0.52
	c0.406-0.141,1.202-0.492,1.611-1.202c0.563-0.977,0.178-2.258,0.178-2.258s-1.302,0.306-1.865,1.282
	c-0.41,0.711-0.317,1.574-0.235,1.998C29.16,14.857,29.254,14.676,29.361,14.488z"/>
<path fill="none" stroke="#7F7F7F" stroke-width="0.45" stroke-miterlimit="10" d="M14.375,18.096
	c1.123,0.646,2.488,0.5,3.154,0.372c-0.275-0.132-0.564-0.28-0.859-0.45c-1.397-0.808-2.369-1.742-2.369-1.742
	s1.297,0.373,2.692,1.18c0.297,0.171,0.567,0.348,0.821,0.52c-0.222-0.641-0.776-1.897-1.899-2.545
	c-1.541-0.891-3.563-0.279-3.563-0.279S12.834,17.205,14.375,18.096z"/>
<path fill="none" stroke="#7F7F7F" stroke-width="0.45" stroke-miterlimit="10" d="M35.699,16.275c0,0-0.971,0.934-2.367,1.741
	c-0.295,0.171-0.585,0.319-0.859,0.45c0.666,0.129,2.031,0.275,3.151-0.371c1.544-0.892,2.022-2.945,2.022-2.945
	s-2.019-0.61-3.562,0.279c-1.123,0.647-1.678,1.903-1.897,2.543c0.252-0.17,0.522-0.347,0.819-0.518
	C34.404,16.648,35.699,16.275,35.699,16.275z"/>
</svg>
