<?xml version="1.0" encoding="utf-8"?>
<!-- Generator: Adobe Illustrator 16.0.0, SVG Export Plug-In . SVG Version: 6.00 Build 0)  -->
<!DOCTYPE svg PUBLIC "-//W3C//DTD SVG 1.1//EN" "http://www.w3.org/Graphics/SVG/1.1/DTD/svg11.dtd">
<svg version="1.1" id="Layer_1" xmlns="http://www.w3.org/2000/svg" xmlns:xlink="http://www.w3.org/1999/xlink" x="0px" y="0px"
	 width="40px" height="40px" viewBox="-4 -4 40 40" enable-background="new -4 -4 40 40" xml:space="preserve">
<path fill="none" stroke="#7F7F7F" stroke-width="0.4" stroke-miterlimit="10" d="M25.618,18.714
	c-0.177,0.277-0.384,0.531-0.604,0.761c-2.052,3.025-8.75,8.344-9.885,10.131c-1.479,2.332-4.521,3.074-6.76,1.654
	c-2.239-1.419-2.911-4.461-1.432-6.792C8.874,21.408,14,21.214,15,19.009c0-0.002,0-0.004,0-0.005c0-0.203,0.126-0.42,0.007-0.592
	c-1.814-2.641-1.721-6.973-0.319-9.183c1.72-2.713,4.931-1.208,8.178,0.851C26.107,12.136,27.338,16.001,25.618,18.714z
	 M18.037,6.151c1.422,0.902,3.396,0.343,4.404-1.251c1.01-1.594,0.676-3.617-0.746-4.521C20.271-0.52,18.301,0.04,17.29,1.634
	C16.28,3.227,16.613,5.251,18.037,6.151z M22.63,5.529c-0.519,0.818-0.378,1.836,0.312,2.274c0.69,0.438,1.672,0.13,2.189-0.688
	c0.52-0.817,0.378-1.835-0.313-2.273C24.129,4.404,23.148,4.711,22.63,5.529z M25.141,8.01c-0.443,0.701-0.312,1.581,0.295,1.966
	c0.605,0.384,1.457,0.127,1.901-0.574c0.444-0.701,0.313-1.581-0.294-1.965C26.438,7.052,25.585,7.309,25.141,8.01z M28.83,12.108
	c0.466-0.735,0.393-1.616-0.164-1.968c-0.557-0.353-1.385-0.042-1.85,0.692s-0.394,1.616,0.164,1.969
	C27.537,13.153,28.365,12.843,28.83,12.108z M29.52,13.154c-0.412-0.261-1.024-0.032-1.371,0.513
	c-0.346,0.545-0.293,1.198,0.119,1.459c0.412,0.261,1.025,0.031,1.371-0.514C29.984,14.068,29.932,13.415,29.52,13.154z"/>
</svg>
