<?xml version="1.0" encoding="utf-8"?>
<!-- Generator: Adobe Illustrator 16.0.0, SVG Export Plug-In . SVG Version: 6.00 Build 0)  -->
<!DOCTYPE svg PUBLIC "-//W3C//DTD SVG 1.1//EN" "http://www.w3.org/Graphics/SVG/1.1/DTD/svg11.dtd">
<svg version="1.1" id="Layer_1" xmlns="http://www.w3.org/2000/svg" xmlns:xlink="http://www.w3.org/1999/xlink" x="0px" y="0px"
	 width="40px" height="40px" viewBox="0 0 40 40" enable-background="new 0 0 40 40" xml:space="preserve">
<path fill="#C092CB" d="M27.609,22.748c-0.176,0.277-0.383,0.531-0.604,0.762c-2.052,3.024-8.75,8.344-9.885,10.131
	c-1.479,2.332-4.521,3.073-6.76,1.651C8.122,33.873,7.45,30.831,8.929,28.5c1.937-3.059,7.063-3.252,8.063-5.457
	c0-0.002,0-0.004,0-0.005c0-0.203,0.126-0.42,0.007-0.593c-1.814-2.64-1.721-6.972-0.319-9.182c1.72-2.713,4.931-1.208,8.177,0.851
	C28.1,16.17,29.33,20.035,27.609,22.748z M20.029,10.185c1.422,0.902,3.396,0.343,4.405-1.251c1.01-1.594,0.676-3.617-0.746-4.521
	c-1.424-0.899-3.396-0.339-4.405,1.255C18.272,7.261,18.605,9.285,20.029,10.185z M24.622,9.563
	c-0.519,0.818-0.378,1.836,0.312,2.274c0.69,0.438,1.672,0.13,2.189-0.688c0.52-0.817,0.378-1.835-0.313-2.273
	C26.121,8.438,25.141,8.745,24.622,9.563z M27.133,12.044c-0.439,0.701-0.313,1.581,0.295,1.966
	c0.605,0.384,1.457,0.127,1.901-0.574s0.313-1.581-0.294-1.965C28.43,11.086,27.577,11.343,27.133,12.044z M30.822,16.142
	c0.466-0.735,0.393-1.616-0.164-1.968c-0.557-0.353-1.385-0.042-1.85,0.692c-0.466,0.734-0.396,1.616,0.164,1.969
	C29.529,17.187,30.357,16.877,30.822,16.142z M31.512,17.188c-0.412-0.261-1.021-0.032-1.371,0.513
	c-0.346,0.545-0.293,1.198,0.119,1.459c0.412,0.261,1.025,0.031,1.371-0.514C31.977,18.102,31.924,17.449,31.512,17.188z"/>
</svg>
