<?xml version="1.0" encoding="utf-8"?>
<!-- Generator: Adobe Illustrator 16.0.0, SVG Export Plug-In . SVG Version: 6.00 Build 0)  -->
<!DOCTYPE svg PUBLIC "-//W3C//DTD SVG 1.1//EN" "http://www.w3.org/Graphics/SVG/1.1/DTD/svg11.dtd">
<svg version="1.1" id="Layer_1" xmlns="http://www.w3.org/2000/svg" xmlns:xlink="http://www.w3.org/1999/xlink" x="0px" y="0px"
	 width="40px" height="40px" viewBox="0 0 40 40" enable-background="new 0 0 40 40" xml:space="preserve">
<path d="M9.047,16.884c1.695-0.155,2.009,1.1,3.122,2.464c0.956,1.173,2.328,1.846,2.798,1.181c0.758-1.073,0.984-1.652,1.751-3.239
	c0.61-1.261,1.592-4.313,2.322-6.625c0.877-2.782,1.479-4.367,2.813-3.87c1.282,0.476,1.009,1.195-0.231,4.951
	c-0.951,2.88-1.306,5.057-0.997,5.137c0.311,0.081,1.075-2.575,2.181-5.125c1.979-4.563,2.558-5.15,3.684-4.607
	c0.97,0.47,0.876,1.205-1.193,5.81c-1.076,2.396-2.007,4.981-1.807,5.078c0.301,0.146,1.654-2.047,2.816-4.572
	c2.172-4.719,2.822-3.968,3.318-3.729c0.488,0.235,1.273,0.785-0.906,5.232c-1.277,2.6-2.348,4.858-1.854,5.097
	c0.218,0.105,1.586-1.825,2.576-3.871c1.652-3.421,2.309-3.104,2.83-2.852c0.52,0.251,0.49,1.013-1.137,4.447
	c-1.295,2.736-3.466,6.423-4.59,8.75c-2.734,5.663-4.601,4.834-5.528,6.754l-7.689-3.715c0.037-0.652-0.332-1.225-0.971-3.12
	c-0.645-1.91-2.321-5.782-4.354-7.366C6.641,18.034,8.001,16.978,9.047,16.884z"/>
</svg>
