<?xml version="1.0" encoding="utf-8"?>
<!-- Generator: Adobe Illustrator 16.0.0, SVG Export Plug-In . SVG Version: 6.00 Build 0)  -->
<!DOCTYPE svg PUBLIC "-//W3C//DTD SVG 1.1//EN" "http://www.w3.org/Graphics/SVG/1.1/DTD/svg11.dtd">
<svg version="1.1" id="Layer_1" xmlns="http://www.w3.org/2000/svg" xmlns:xlink="http://www.w3.org/1999/xlink" x="0px" y="0px"
	 width="40px" height="40px" viewBox="-7 -7 40 40" enable-background="new -7 -7 40 40" xml:space="preserve">
<rect fill="none" width="26" height="26"/>
<rect fill="none" width="26" height="26"/>
<path fill="none" stroke="#C092C3" stroke-width="0.45" stroke-miterlimit="10" d="M1.53,11.894c1.695-0.155,2.009,1.1,3.122,2.464
	c0.956,1.173,2.328,1.846,2.798,1.181c0.758-1.073,0.984-1.652,1.751-3.239c0.61-1.261,1.592-4.313,2.322-6.625
	c0.877-2.782,1.48-4.367,2.814-3.87c1.281,0.476,1.008,1.195-0.232,4.951c-0.951,2.88-1.306,5.057-0.997,5.137
	c0.31,0.081,1.075-2.575,2.181-5.125c1.979-4.563,2.557-5.15,3.683-4.607c0.97,0.47,0.876,1.205-1.193,5.81
	c-1.076,2.396-2.007,4.981-1.807,5.078c0.301,0.146,1.654-2.047,2.817-4.572c2.171-4.719,2.823-3.968,3.318-3.729
	c0.488,0.235,1.274,0.785-0.907,5.232c-1.276,2.6-2.347,4.858-1.853,5.097c0.218,0.105,1.587-1.825,2.576-3.871
	c1.652-3.421,2.31-3.104,2.83-2.852c0.521,0.251,0.49,1.013-1.137,4.447c-1.294,2.736-3.465,6.423-4.589,8.75
	c-2.735,5.663-4.601,4.834-5.529,6.754L5.809,24.59c0.037-0.653-0.332-1.225-0.971-3.12c-0.645-1.91-2.321-5.783-4.354-7.366
	C-0.876,13.044,0.484,11.988,1.53,11.894z"/>
</svg>
