<?xml version="1.0" encoding="utf-8"?>
<!-- Generator: Adobe Illustrator 16.0.0, SVG Export Plug-In . SVG Version: 6.00 Build 0)  -->
<!DOCTYPE svg PUBLIC "-//W3C//DTD SVG 1.1//EN" "http://www.w3.org/Graphics/SVG/1.1/DTD/svg11.dtd">
<svg version="1.1" id="Layer_1" xmlns="http://www.w3.org/2000/svg" xmlns:xlink="http://www.w3.org/1999/xlink" x="0px" y="0px"
	 width="50px" height="50px" viewBox="0 0 50 50" enable-background="new 0 0 50 50" xml:space="preserve">
<path fill="#C092CB" d="M34.986,22.979c1.895-9.269-5.637-13.511-13.995-12.176c-8.359,1.333-8.045,6.39-8.537,8.803
	C11.475,25.652,17.7,32.41,17.7,32.41l-0.355,7.025h10.137l0.774-3.229c0,0,0.438,0.737,3.06,0.961
	c2.621,0.222,2.301-2.978,2.301-2.978s1.744-0.771,1.744-1.347c0-0.577-1.031-1.321-1.031-1.321s1.109,0.199,1.511-0.269
	c0.399-0.467-0.489-2.153-0.489-2.153s1.369-0.035,2.174-0.923C38.331,27.293,34.986,24.67,34.986,22.979z"/>
</svg>
