<?xml version="1.0" encoding="utf-8"?>
<!-- Generator: Adobe Illustrator 16.0.0, SVG Export Plug-In . SVG Version: 6.00 Build 0)  -->
<!DOCTYPE svg PUBLIC "-http://W3Chttp://DTD SVG 1.1http://EN" "http://www.w3.org/Graphics/SVG/1.1/DTD/svg11.dtd">
<svg version="1.1" id="Layer_1" xmlns="http://www.w3.org/2000/svg" xmlns:xlink="http://www.w3.org/1999/xlink" x="0px" y="0px"
	 width="50px" height="50px" viewBox="-12.35 -10.563 50 50" enable-background="new -12.35 -10.563 50 50" xml:space="preserve">
<path fill="none" stroke="#C092C3" stroke-width="0.5" stroke-miterlimit="10" d="M22.636,12.416C24.53,3.147,17-1.095,8.641,0.24
	C0.282,1.573,0.596,6.63,0.104,9.043C-0.875,15.089,5.35,21.847,5.35,21.847l-0.355,7.026h10.137l0.775-3.231
	c0,0,0.44,0.738,3.059,0.961c2.621,0.222,2.301-2.977,2.301-2.977s1.744-0.77,1.744-1.346c0-0.577-1.032-1.322-1.032-1.322
	s1.11,0.2,1.511-0.268c0.399-0.467-0.49-2.154-0.49-2.154s1.369-0.034,2.174-0.922C25.98,16.729,22.636,14.106,22.636,12.416z"/>
</svg>
