<?xml version="1.0" encoding="utf-8"?>
<!-- Generator: Adobe Illustrator 16.0.0, SVG Export Plug-In . SVG Version: 6.00 Build 0)  -->
<!DOCTYPE svg PUBLIC "-//W3C//DTD SVG 1.1//EN" "http://www.w3.org/Graphics/SVG/1.1/DTD/svg11.dtd">
<svg version="1.1" id="Capa_1" xmlns="http://www.w3.org/2000/svg" xmlns:xlink="http://www.w3.org/1999/xlink" x="0px" y="0px"
	 width="60.99px" height="54.492px" viewBox="0 0 60.99 54.492" enable-background="new 0 0 60.99 54.492" xml:space="preserve">
<path fill="#C092CB" d="M37.358,47.485H7.792v-2.756c0.538,0.428,1.226,0.688,1.965,0.688h25.562L37.358,47.485z M20.587,7.004
	c-1.585,0-2.872,1.285-2.872,2.871c0,0.984,0.494,1.855,1.253,2.373c0.326-0.902,0.854-1.734,1.557-2.436
	c0.7-0.701,1.531-1.229,2.435-1.557C22.441,7.499,21.572,7.004,20.587,7.004z M19.765,14.53c0,3.023,2.455,5.475,5.477,5.475
	s5.476-2.453,5.476-5.475c0-3.025-2.454-5.477-5.476-5.477c-0.645,0-1.259,0.109-1.83,0.313c-1.551,0.553-2.786,1.783-3.333,3.334
	C19.876,13.276,19.765,13.891,19.765,14.53z M16.792,22.084c-1.281,2.842-4.077,10.107-4.846,11.938h9.538
	c0.211-0.52,0.445-1.023,0.706-1.498c0.896-1.678,3.702-2.508,3.034-4.848c-0.005-0.02-0.016-0.039-0.02-0.063l2.513,2.383
	c0.188,0.178,0.412,0.322,0.652,0.412l6.869,2.623c0.229,0.086,0.471,0.129,0.705,0.129c0.797,0,1.547-0.484,1.844-1.271
	c0.391-1.018-0.119-2.16-1.143-2.549l-6.071-2.32c-0.283-0.109-0.542-0.273-0.765-0.48c0,0-5.345-5.07-5.351-5.076
	c-0.226-0.217-0.519-0.354-0.825-0.455c-0.072-0.023-0.148-0.049-0.227-0.066c-0.082-0.025-0.168-0.049-0.254-0.068
	c-1.335-0.354-2.819-0.656-4.193-0.537c-0.451,0.037-0.945,0.152-1.33,0.418C17.192,21.071,17.009,21.608,16.792,22.084z
	 M9.756,44.215h26.061l2.496,2.529c0.234,0.24,0.52,0.428,0.82,0.553c0.299,0.121,0.615,0.189,0.941,0.189H50.72
	c1.383,0,2.496-1.135,2.479-2.518c-0.023-1.359-1.158-2.436-2.518-2.436h-9.566l-6.502-6.6c-0.506-0.514-0.805-0.727-1.705-0.727
	c-1.559,0-23.149,0.016-23.149,0.016c-1.085,0-1.965,0.879-1.965,1.965v4.553v0.51C7.792,43.336,8.671,44.215,9.756,44.215z
	 M49.624,35.157c0-3.137-2.545-5.684-5.682-5.684s-5.684,2.547-5.684,5.684s2.547,5.682,5.684,5.682S49.624,38.297,49.624,35.157z"
	/>
</svg>
