<?xml version="1.0" encoding="utf-8"?>
<!-- Generator: Adobe Illustrator 16.0.0, SVG Export Plug-In . SVG Version: 6.00 Build 0)  -->
<!DOCTYPE svg PUBLIC "-//W3C//DTD SVG 1.1//EN" "http://www.w3.org/Graphics/SVG/1.1/DTD/svg11.dtd">
<svg version="1.1" id="Capa_1" xmlns="http://www.w3.org/2000/svg" xmlns:xlink="http://www.w3.org/1999/xlink" x="0px" y="0px"
	 width="70px" height="70px" viewBox="464.702 453.35 70 70" enable-background="new 464.702 453.35 70 70" xml:space="preserve">
<path fill="none" stroke="#7F7F7F" stroke-width="0.8" stroke-miterlimit="10" d="M506.566,508.591H477v-2.757
	c0.538,0.428,1.225,0.687,1.964,0.687h25.561L506.566,508.591z M489.794,468.109c-1.584,0-2.872,1.287-2.872,2.872
	c0,0.984,0.495,1.854,1.253,2.373c0.327-0.903,0.855-1.734,1.556-2.435s1.532-1.229,2.435-1.556
	C491.648,468.604,490.779,468.109,489.794,468.109z M488.973,475.635c0,3.025,2.455,5.475,5.476,5.475
	c3.021,0,5.475-2.454,5.475-5.475c0-3.026-2.454-5.475-5.475-5.475c-0.644,0-1.259,0.11-1.83,0.312
	c-1.551,0.552-2.786,1.782-3.333,3.333C489.084,474.381,488.973,474.996,488.973,475.635z M486,483.189
	c-1.282,2.843-4.078,10.109-4.846,11.939h9.538c0.211-0.519,0.446-1.023,0.706-1.499c0.898-1.676,3.703-2.507,3.035-4.846
	c-0.005-0.02-0.015-0.039-0.019-0.063l2.512,2.382c0.187,0.178,0.413,0.322,0.653,0.413l6.868,2.623
	c0.23,0.086,0.471,0.129,0.706,0.129c0.797,0,1.546-0.485,1.844-1.272c0.39-1.018-0.12-2.161-1.143-2.55l-6.071-2.32
	c-0.283-0.11-0.542-0.274-0.764-0.48c0,0-5.345-5.072-5.35-5.077c-0.226-0.216-0.519-0.355-0.826-0.456
	c-0.072-0.024-0.149-0.048-0.226-0.067c-0.082-0.024-0.168-0.048-0.254-0.067c-1.335-0.355-2.819-0.658-4.193-0.538
	c-0.452,0.038-0.946,0.153-1.331,0.417C486.399,482.176,486.217,482.714,486,483.189z M478.964,505.32h26.06l2.497,2.531
	c0.235,0.24,0.52,0.427,0.821,0.552c0.298,0.12,0.615,0.188,0.941,0.188h10.644c1.383,0,2.497-1.134,2.478-2.517
	c-0.023-1.359-1.157-2.435-2.517-2.435h-9.566l-6.503-6.599c-0.505-0.514-0.803-0.726-1.705-0.726
	c-1.557,0-23.149,0.015-23.149,0.015c-1.085,0-1.964,0.879-1.964,1.964v4.553v0.509C477,504.441,477.879,505.32,478.964,505.32z
	 M518.831,496.262c0-3.136-2.545-5.682-5.682-5.682c-3.136,0-5.682,2.545-5.682,5.682s2.546,5.682,5.682,5.682
	C516.286,501.944,518.831,499.403,518.831,496.262z"/>
</svg>
