<?xml version="1.0" encoding="utf-8"?>
<!-- Generator: Adobe Illustrator 16.0.0, SVG Export Plug-In . SVG Version: 6.00 Build 0)  -->
<!DOCTYPE svg PUBLIC "-//W3C//DTD SVG 1.1//EN" "http://www.w3.org/Graphics/SVG/1.1/DTD/svg11.dtd">
<svg version="1.1" id="Capa_1" xmlns="http://www.w3.org/2000/svg" xmlns:xlink="http://www.w3.org/1999/xlink" x="0px" y="0px"
	 width="60.99px" height="54.491px" viewBox="477.85 454.5 60.99 54.491" enable-background="new 477.85 454.5 60.99 54.491"
	 xml:space="preserve">
<path fill="#FFFFFF" d="M515.209,501.986h-29.566v-2.757c0.538,0.428,1.225,0.688,1.964,0.688h25.562L515.209,501.986z
	 M498.437,461.505c-1.584,0-2.872,1.286-2.872,2.872c0,0.983,0.495,1.854,1.253,2.373c0.327-0.903,0.855-1.734,1.557-2.436
	c0.7-0.701,1.531-1.229,2.435-1.556C500.291,462,499.422,461.505,498.437,461.505z M497.615,469.03c0,3.025,2.455,5.476,5.477,5.476
	c3.021,0,5.475-2.454,5.475-5.476c0-3.025-2.454-5.475-5.475-5.475c-0.645,0-1.259,0.109-1.83,0.312
	c-1.551,0.553-2.786,1.782-3.333,3.333C497.727,467.776,497.615,468.392,497.615,469.03z M494.643,476.585
	c-1.282,2.843-4.078,10.108-4.846,11.938h9.538c0.211-0.519,0.445-1.023,0.706-1.499c0.897-1.676,3.702-2.507,3.034-4.846
	c-0.005-0.021-0.015-0.039-0.019-0.063l2.512,2.382c0.188,0.179,0.413,0.322,0.653,0.413l6.868,2.623
	c0.229,0.086,0.471,0.129,0.706,0.129c0.797,0,1.546-0.484,1.844-1.271c0.39-1.019-0.12-2.161-1.144-2.55l-6.07-2.32
	c-0.283-0.11-0.542-0.274-0.765-0.48c0,0-5.345-5.071-5.35-5.076c-0.226-0.217-0.519-0.355-0.826-0.456
	c-0.072-0.024-0.148-0.049-0.226-0.067c-0.082-0.024-0.168-0.048-0.254-0.067c-1.335-0.354-2.819-0.657-4.193-0.537
	c-0.452,0.037-0.946,0.152-1.331,0.417C495.042,475.571,494.859,476.109,494.643,476.585z M487.606,498.716h26.061l2.497,2.53
	c0.234,0.24,0.52,0.428,0.82,0.553c0.298,0.12,0.615,0.188,0.941,0.188h10.644c1.383,0,2.497-1.134,2.479-2.517
	c-0.023-1.359-1.157-2.436-2.518-2.436h-9.565l-6.503-6.599c-0.505-0.514-0.804-0.726-1.705-0.726
	c-1.558,0-23.149,0.015-23.149,0.015c-1.085,0-1.964,0.879-1.964,1.964v4.553v0.51C485.643,497.837,486.521,498.716,487.606,498.716
	z M527.474,489.657c0-3.136-2.545-5.682-5.682-5.682s-5.683,2.545-5.683,5.682c0,3.138,2.546,5.683,5.683,5.683
	S527.474,492.799,527.474,489.657z"/>
</svg>
