<?xml version="1.0" encoding="utf-8"?>
<!-- Generator: Adobe Illustrator 16.0.0, SVG Export Plug-In . SVG Version: 6.00 Build 0)  -->
<!DOCTYPE svg PUBLIC "-//W3C//DTD SVG 1.1//EN" "http://www.w3.org/Graphics/SVG/1.1/DTD/svg11.dtd">
<svg version="1.1" id="Capa_1" xmlns="http://www.w3.org/2000/svg" xmlns:xlink="http://www.w3.org/1999/xlink" x="0px" y="0px"
	 width="70px" height="70px" viewBox="456.404 464.824 70 70" enable-background="new 456.404 464.824 70 70" xml:space="preserve">
<circle fill="none" stroke="#C092C3" stroke-width="0.8" stroke-miterlimit="10" cx="491.391" cy="485.312" r="6.694"/>
<path fill="none" stroke="#C092C3" stroke-width="0.8" stroke-miterlimit="10" d="M506.752,483.789
	c-0.561-1.197-1.982-1.714-3.185-1.159c-1.197,0.56-1.714,1.982-1.158,3.184l4.611,9.879c-3.851-0.498-7.686-1.111-11.56-1.403
	s-7.719-0.096-11.574,0.321c-1.968,0.211-3.932,0.469-5.895,0.723c-1.054,0.134-2.107,0.273-3.156,0.407l4.611-9.884
	c0.56-1.197,0.043-2.624-1.159-3.184c-1.197-0.56-2.624-0.043-3.185,1.159l-6.44,13.829c-0.369,0.79-0.278,1.719,0.235,2.423
	c0.455,0.623,1.173,0.981,1.935,0.981c0.101,0,0.206-0.005,0.306-0.019l10.521-1.355c0,0.015,0,0.024,0,0.039
	c0,2.112,0.493,4.084,1.355,5.78c0.383,0.751,0.604,1.58,0.666,2.423l0.292,3.94c0.153,2.073-0.11,4.151-0.756,6.105h16.367
	c-0.651-1.954-0.91-4.032-0.757-6.105l0.292-3.94c0.063-0.843,0.282-1.672,0.666-2.423c0.856-1.686,1.35-3.649,1.354-5.751
	l9.601,1.241c0.101,0.014,0.206,0.019,0.307,0.019c0.757,0,1.479-0.358,1.93-0.981c0.518-0.704,0.608-1.633,0.239-2.428
	L506.752,483.789z M491.918,515.981c-1.552,0-2.615-0.914-2.615-2.04c0-1.125,1.058-2.039,2.615-2.039
	c1.556,0,2.116,0.914,2.116,2.039C494.034,515.067,493.469,515.981,491.918,515.981z M489.461,506.812
	c0-1.053,0.522-1.905,1.973-1.905c1.451,0,2.438,0.853,2.438,1.905c0,1.054-0.986,1.906-2.438,1.906
	C489.983,508.718,489.461,507.865,489.461,506.812z M491.951,501.568c-1.752,0-2.95-1.029-2.95-2.303
	c0-1.273,1.197-2.303,2.95-2.303c1.753,0,2.385,1.03,2.385,2.303C494.336,500.539,493.704,501.568,491.951,501.568z"/>
<path fill="none" stroke="#C092C3" stroke-width="0.8" stroke-miterlimit="10" d="M500.666,519.181h-0.637h-17.272h-0.637
	c-1.073,0-1.939,0.9-1.939,2.011v4.214h22.425v-4.219C502.606,520.081,501.739,519.181,500.666,519.181z"/>
</svg>
