<?xml version="1.0" encoding="utf-8"?>
<!-- Generator: Adobe Illustrator 16.0.0, SVG Export Plug-In . SVG Version: 6.00 Build 0)  -->
<!DOCTYPE svg PUBLIC "-//W3C//DTD SVG 1.1//EN" "http://www.w3.org/Graphics/SVG/1.1/DTD/svg11.dtd">
<svg version="1.1" id="Capa_1" xmlns="http://www.w3.org/2000/svg" xmlns:xlink="http://www.w3.org/1999/xlink" x="0px" y="0px"
	 width="70px" height="70px" viewBox="455.939 467.012 70 70" enable-background="new 455.939 467.012 70 70" xml:space="preserve">
<circle fill="none" stroke="#7F7F7F" stroke-width="0.8" stroke-miterlimit="10" cx="491.391" cy="485.312" r="6.694"/>
<path fill="none" stroke="#7F7F7F" stroke-width="0.8" stroke-miterlimit="10" d="M506.752,483.789
	c-0.561-1.197-1.982-1.714-3.186-1.159c-1.197,0.561-1.713,1.982-1.158,3.185l4.611,9.879c-3.85-0.498-7.686-1.111-11.559-1.403
	c-3.875-0.292-7.721-0.096-11.574,0.321c-1.969,0.211-3.934,0.469-5.896,0.723c-1.053,0.134-2.105,0.273-3.154,0.407l4.609-9.884
	c0.561-1.197,0.043-2.624-1.158-3.185c-1.197-0.56-2.625-0.043-3.186,1.159l-6.439,13.829c-0.369,0.79-0.277,1.719,0.234,2.423
	c0.455,0.623,1.174,0.981,1.936,0.981c0.102,0,0.205-0.006,0.307-0.02l10.52-1.354c0,0.015,0,0.023,0,0.038
	c0,2.112,0.494,4.085,1.355,5.78c0.383,0.751,0.604,1.58,0.666,2.423l0.293,3.94c0.152,2.073-0.111,4.151-0.756,6.104h16.365
	c-0.65-1.953-0.908-4.031-0.756-6.104l0.291-3.94c0.064-0.843,0.283-1.672,0.666-2.423c0.857-1.686,1.352-3.648,1.355-5.751
	l9.6,1.241c0.102,0.014,0.207,0.019,0.309,0.019c0.756,0,1.479-0.357,1.93-0.98c0.518-0.704,0.607-1.633,0.238-2.428
	L506.752,483.789z"/>
<path fill="#7F7F7F" d="M491.918,515.981c-1.553,0-2.615-0.914-2.615-2.04c0-1.125,1.059-2.039,2.615-2.039s2.115,0.914,2.115,2.039
	C494.033,515.067,493.469,515.981,491.918,515.981z"/>
<path fill="#7F7F7F" d="M489.461,506.812c0-1.053,0.521-1.904,1.973-1.904s2.438,0.853,2.438,1.904c0,1.055-0.984,1.906-2.438,1.906
	C489.982,508.718,489.461,507.865,489.461,506.812z"/>
<path fill="#7F7F7F" d="M491.951,501.568c-1.752,0-2.951-1.029-2.951-2.304c0-1.272,1.197-2.303,2.951-2.303
	c1.752,0,2.385,1.03,2.385,2.303C494.336,500.539,493.703,501.568,491.951,501.568z"/>
<path fill="none" stroke="#7F7F7F" stroke-width="0.8" stroke-miterlimit="10" d="M500.666,519.181h-0.637h-17.271h-0.639
	c-1.072,0-1.938,0.9-1.938,2.012v4.214h22.424v-4.22C502.605,520.081,501.738,519.181,500.666,519.181z"/>
</svg>
