<?xml version="1.0" encoding="utf-8"?>
<!-- Generator: Adobe Illustrator 16.0.0, SVG Export Plug-In . SVG Version: 6.00 Build 0)  -->
<!DOCTYPE svg PUBLIC "-//W3C//DTD SVG 1.1//EN" "http://www.w3.org/Graphics/SVG/1.1/DTD/svg11.dtd">
<svg version="1.1" id="Layer_1" xmlns="http://www.w3.org/2000/svg" xmlns:xlink="http://www.w3.org/1999/xlink" x="0px" y="0px"
	 width="50px" height="50px" viewBox="0 0 50 50" enable-background="new 0 0 50 50" xml:space="preserve">
<ellipse fill="none" stroke="#7F7F7F" stroke-width="0.45" stroke-miterlimit="10" cx="24.767" cy="16.222" rx="1.868" ry="2.103"/>
<path fill="none" stroke="#7F7F7F" stroke-width="0.45" stroke-miterlimit="10" d="M27.451,21.282
	c1.012-0.506,7.747-3.581,9.07-5.761c0,0-3.972,3.504-11.755,3.504c-7.785,0-11.756-3.504-11.756-3.504
	c1.322,2.18,8.058,5.255,9.07,5.761c-0.468,2.219,0.739,1.868,0.816,2.842c0.078,0.974-0.934,1.091-1.011,2.842
	c-0.079,1.751,2.41,7.667,2.879,12.179v0.006c0-0.002,0-0.002,0.001-0.002v-0.004c0.469-4.512,2.958-10.428,2.879-12.179
	s-1.09-1.868-1.012-2.842S27.919,23.501,27.451,21.282z"/>
</svg>
