<?xml version="1.0" encoding="utf-8"?>
<!-- Generator: Adobe Illustrator 16.0.0, SVG Export Plug-In . SVG Version: 6.00 Build 0)  -->
<!DOCTYPE svg PUBLIC "-//W3C//DTD SVG 1.1//EN" "http://www.w3.org/Graphics/SVG/1.1/DTD/svg11.dtd">
<svg version="1.1" id="Capa_1" xmlns="http://www.w3.org/2000/svg" xmlns:xlink="http://www.w3.org/1999/xlink" x="0px" y="0px"
	 width="90px" height="90px" viewBox="0 0 90 90" enable-background="new 0 0 90 90" xml:space="preserve">
<g>
	<path d="M35.229,27.835c-1.143,0.756-2.192,1.453-3.057,2.198c-0.812,1.086-1.324,2.346-1.324,3.999
		c0,3.371,1.25,5.341,2.338,6.419c-0.028,0.35-0.065,0.698-0.065,1.05c0,6.933,5.428,12.571,12.099,12.571
		c6.673,0,12.101-5.64,12.101-12.571c0-1.057-0.131-2.087-0.375-3.086c0.773-2.898,1.391-7.04,0.221-11.832l-0.57,0.149
		c-0.088,0.023-4.432,1.183-9.209,3.624c2.23,2.158,5.254,5.162,7.873,10.054c0.035,0.361,0.062,0.724,0.062,1.092
		c0,5.83-4.53,10.572-10.101,10.572c-5.569,0-10.099-4.742-10.099-10.572c0-0.342,0.032-0.68,0.063-1.019
		c4.542-10.532,21.663-14.978,21.663-14.978s0.839-9.784-11.322-9.504c-9.709,0.223-11.396,7.94-11.683,11.048
		c0.201-0.134,0.398-0.268,0.601-0.402c2.103-1.392,6.72-4.712,6.565-4.522C41.007,22.126,37.333,26.442,35.229,27.835z"/>
	<path d="M58.732,57.156c-4.998,9.321-11.938,14.321-16.791,16.847h17.186c1.105,0,2-0.896,2-2V61.649
		C61.127,59.778,60.176,58.13,58.732,57.156z"/>
	<path d="M29.215,61.649v10.354c0,1.104,0.896,2,2,2h5.194c2.819-0.935,13.491-5.188,20.304-17.664
		c-0.324-0.063-0.654-0.102-0.998-0.102H34.627C31.639,56.238,29.215,58.662,29.215,61.649z"/>
	<path d="M62.359,42.48c0.424-0.345,0.494-0.969,0.15-1.398c-0.342-0.433-0.973-0.503-1.404-0.159
		c-1.047,0.835-2.432,3.169-0.16,6.026c1.703,2.145-0.945,5.277-0.973,5.308c-0.361,0.417-0.316,1.049,0.102,1.411
		c0.188,0.164,0.422,0.244,0.654,0.244c0.279,0,0.559-0.117,0.756-0.346c0.154-0.18,3.762-4.418,1.025-7.858
		C60.994,43.796,62.115,42.686,62.359,42.48z"/>
	<path d="M71.109,42.48c0.424-0.345,0.494-0.969,0.15-1.398c-0.344-0.433-0.973-0.503-1.404-0.159
		c-1.047,0.835-2.432,3.169-0.16,6.026c1.703,2.145-0.945,5.277-0.973,5.308c-0.361,0.417-0.316,1.049,0.102,1.411
		c0.188,0.164,0.422,0.244,0.654,0.244c0.279,0,0.559-0.117,0.756-0.346c0.154-0.18,3.762-4.418,1.025-7.858
		C69.744,43.796,70.865,42.686,71.109,42.48z"/>
	<path d="M28.517,53.566c0.198,0.229,0.477,0.346,0.756,0.346c0.232,0,0.465-0.081,0.654-0.244c0.418-0.362,0.462-0.994,0.101-1.411
		c-0.026-0.03-2.675-3.163-0.973-5.306c2.271-2.859,0.888-5.193-0.16-6.028c-0.432-0.343-1.062-0.273-1.405,0.159
		c-0.342,0.429-0.273,1.053,0.151,1.398c0.245,0.207,1.365,1.317-0.152,3.227C24.755,49.15,28.361,53.387,28.517,53.566z"/>
	<path d="M19.767,53.566c0.198,0.229,0.477,0.346,0.756,0.346c0.232,0,0.465-0.081,0.654-0.244c0.418-0.362,0.462-0.994,0.101-1.411
		c-0.026-0.03-2.675-3.163-0.973-5.306c2.271-2.859,0.888-5.193-0.16-6.028c-0.432-0.343-1.061-0.273-1.405,0.159
		c-0.342,0.429-0.273,1.053,0.151,1.398c0.245,0.207,1.365,1.317-0.152,3.227C16.005,49.15,19.611,53.387,19.767,53.566z"/>
</g>
</svg>
