<?xml version="1.0" encoding="utf-8"?>
<!-- Generator: Adobe Illustrator 16.0.0, SVG Export Plug-In . SVG Version: 6.00 Build 0)  -->
<!DOCTYPE svg PUBLIC "-http://W3Chttp://DTD SVG 1.1http://EN" "http://www.w3.org/Graphics/SVG/1.1/DTD/svg11.dtd">
<svg version="1.1" id="Capa_1" xmlns="http://www.w3.org/2000/svg" xmlns:xlink="http://www.w3.org/1999/xlink" x="0px" y="0px"
	 width="90px" height="90px" viewBox="-13 -13 90 90" enable-background="new -13 -13 90 90" xml:space="preserve">
<g>
	<path fill="none" stroke="#C092C3" stroke-miterlimit="10" d="M20.723,14.121c-1.143,0.756-2.192,1.453-3.057,2.198
		c-0.812,1.086-1.324,2.346-1.324,3.999c0,3.371,1.25,5.341,2.338,6.419c-0.028,0.35-0.065,0.698-0.065,1.05
		c0,6.933,5.428,12.572,12.099,12.572c6.673,0,12.101-5.64,12.101-12.572c0-1.057-0.131-2.087-0.375-3.086
		c0.774-2.898,1.391-7.04,0.22-11.832l-0.57,0.149c-0.087,0.023-4.431,1.183-9.208,3.624c2.23,2.158,5.253,5.162,7.873,10.054
		c0.035,0.361,0.061,0.724,0.061,1.092c0,5.83-4.531,10.573-10.101,10.573c-5.569,0-10.099-4.743-10.099-10.573
		c0-0.342,0.032-0.68,0.063-1.019c4.542-10.532,21.663-14.978,21.663-14.978s0.839-9.784-11.322-9.504
		c-9.709,0.223-11.396,7.94-11.683,11.048c0.201-0.134,0.398-0.268,0.601-0.402c2.103-1.392,6.72-4.712,6.565-4.522
		C26.502,8.412,22.828,12.728,20.723,14.121z"/>
	<path fill="none" stroke="#C092C3" stroke-miterlimit="10" d="M44.227,43.443c-4.998,9.32-11.938,14.32-16.791,16.846h17.186
		c1.104,0,2-0.896,2-2V47.936C46.622,46.064,45.671,44.416,44.227,43.443z"/>
	<path fill="none" stroke="#C092C3" stroke-miterlimit="10" d="M14.71,47.936V58.29c0,1.104,0.896,2,2,2h5.194
		c2.819-0.935,13.491-5.188,20.304-17.664c-0.325-0.062-0.655-0.101-0.998-0.101H20.122C17.134,42.525,14.71,44.948,14.71,47.936z"
		/>
	<path fill="none" stroke="#C092C3" stroke-miterlimit="10" d="M47.854,28.766c0.424-0.345,0.494-0.969,0.151-1.398
		c-0.343-0.433-0.974-0.503-1.405-0.159c-1.047,0.835-2.431,3.169-0.16,6.027c1.703,2.144-0.946,5.277-0.973,5.307
		c-0.361,0.417-0.316,1.049,0.102,1.411c0.188,0.164,0.422,0.244,0.654,0.244c0.279,0,0.559-0.117,0.756-0.345
		c0.154-0.18,3.762-4.418,1.026-7.859C46.488,30.082,47.609,28.972,47.854,28.766z"/>
	<path fill="none" stroke="#C092C3" stroke-miterlimit="10" d="M56.604,28.766c0.424-0.345,0.494-0.969,0.151-1.398
		c-0.344-0.433-0.974-0.503-1.405-0.159c-1.047,0.835-2.431,3.169-0.16,6.027c1.703,2.144-0.946,5.277-0.973,5.307
		c-0.361,0.417-0.316,1.049,0.102,1.411c0.188,0.164,0.422,0.244,0.654,0.244c0.279,0,0.559-0.117,0.756-0.345
		c0.154-0.18,3.762-4.418,1.026-7.859C55.238,30.082,56.359,28.972,56.604,28.766z"/>
	<path fill="none" stroke="#C092C3" stroke-miterlimit="10" d="M14.011,39.852c0.198,0.229,0.477,0.346,0.756,0.346
		c0.232,0,0.465-0.081,0.654-0.244c0.418-0.362,0.462-0.994,0.101-1.411c-0.026-0.03-2.675-3.163-0.973-5.306
		c2.271-2.859,0.888-5.193-0.16-6.028c-0.432-0.343-1.062-0.273-1.405,0.159c-0.342,0.429-0.273,1.053,0.151,1.398
		c0.245,0.207,1.365,1.317-0.152,3.227C10.25,35.436,13.856,39.673,14.011,39.852z"/>
	<path fill="none" stroke="#C092C3" stroke-miterlimit="10" d="M5.261,39.852c0.198,0.229,0.477,0.346,0.756,0.346
		c0.232,0,0.465-0.081,0.654-0.244c0.418-0.362,0.462-0.994,0.101-1.411c-0.026-0.03-2.675-3.163-0.973-5.306
		c2.271-2.859,0.888-5.193-0.16-6.028c-0.432-0.343-1.061-0.273-1.405,0.159c-0.342,0.429-0.273,1.053,0.151,1.398
		c0.245,0.207,1.365,1.317-0.152,3.227C1.5,35.436,5.106,39.673,5.261,39.852z"/>
</g>
</svg>
