<?xml version="1.0" encoding="utf-8"?>
<!-- Generator: Adobe Illustrator 16.0.0, SVG Export Plug-In . SVG Version: 6.00 Build 0)  -->
<!DOCTYPE svg PUBLIC "-http://W3Chttp://DTD SVG 1.1http://EN" "http://www.w3.org/Graphics/SVG/1.1/DTD/svg11.dtd">
<svg version="1.1" id="Layer_1" xmlns="http://www.w3.org/2000/svg" xmlns:xlink="http://www.w3.org/1999/xlink" x="0px" y="0px"
	 width="750px" height="750px" viewBox="0 0 750 750" enable-background="new 0 0 750 750" xml:space="preserve">
<path fill="#8B9DC3" d="M375,119c-141.392,0-256,114.609-256,256c0,141.391,114.607,256,256,256c141.391,0,256-114.609,256-256
	C631,233.609,516.391,119,375,119z M375,591c-119.297,0-216-96.703-216-216s96.703-216,216-216s216,96.703,216,216
	S494.297,591,375,591z"/>
<path fill="#8B9DC3" d="M435.75,335.812h-44.531v-32.5c0-9.969,10.312-12.281,15.125-12.281c4.781,0,28.766,0,28.766,0v-43.859
	L402.141,247c-44.984,0-55.25,32.703-55.25,53.672v35.141H314.25V381h32.641c0,58.016,0,122,0,122h44.328c0,0,0-64.641,0-122h37.656
	L435.75,335.812z"/>
</svg>
