<?xml version="1.0" encoding="utf-8"?>
<!-- Generator: Adobe Illustrator 16.0.0, SVG Export Plug-In . SVG Version: 6.00 Build 0)  -->
<!DOCTYPE svg PUBLIC "-http://W3Chttp://DTD SVG 1.1http://EN" "http://www.w3.org/Graphics/SVG/1.1/DTD/svg11.dtd">
<svg version="1.1" id="Layer_1" xmlns="http://www.w3.org/2000/svg" xmlns:xlink="http://www.w3.org/1999/xlink" x="0px" y="0px"
	 width="40px" height="40px" viewBox="0 0 40 40" enable-background="new 0 0 40 40" xml:space="preserve">
<path fill="#C092CB" d="M9.047,16.884c1.695-0.155,2.009,1.1,3.122,2.464c0.956,1.173,2.328,1.845,2.798,1.181
	c0.758-1.073,0.984-1.652,1.751-3.239c0.61-1.261,1.592-4.313,2.322-6.625c0.877-2.782,1.479-4.367,2.813-3.87
	c1.281,0.476,1.008,1.195-0.231,4.951c-0.951,2.88-1.306,5.057-0.997,5.137c0.311,0.081,1.075-2.575,2.182-5.125
	c1.979-4.563,2.557-5.15,3.684-4.607c0.97,0.47,0.876,1.205-1.193,5.81c-1.076,2.396-2.007,4.981-1.807,5.078
	c0.301,0.146,1.654-2.047,2.816-4.572c2.172-4.719,2.821-3.968,3.317-3.729c0.487,0.235,1.272,0.785-0.906,5.232
	c-1.276,2.6-2.348,4.858-1.854,5.097c0.219,0.105,1.587-1.825,2.576-3.871c1.652-3.421,2.31-3.104,2.83-2.852
	c0.521,0.251,0.49,1.013-1.137,4.447c-1.295,2.736-3.466,6.423-4.59,8.75c-2.734,5.663-4.602,4.834-5.527,6.754l-7.689-3.715
	c0.037-0.652-0.332-1.225-0.971-3.12c-0.645-1.91-2.321-5.782-4.354-7.366C6.641,18.034,8.001,16.978,9.047,16.884z"/>
</svg>
