<?xml version="1.0" encoding="utf-8"?>
<!-- Generator: Adobe Illustrator 16.0.0, SVG Export Plug-In . SVG Version: 6.00 Build 0)  -->
<!DOCTYPE svg PUBLIC "-http://W3Chttp://DTD SVG 1.1http://EN" "http://www.w3.org/Graphics/SVG/1.1/DTD/svg11.dtd">
<svg version="1.1" id="Capa_1" xmlns="http://www.w3.org/2000/svg" xmlns:xlink="http://www.w3.org/1999/xlink" x="0px" y="0px"
	 width="70px" height="70px" viewBox="0 0 70 70" enable-background="new 0 0 70 70" xml:space="preserve">
<path fill="#FFFFFF" d="M35.452,11.605c3.696,0,6.694,2.997,6.694,6.694c0,3.697-2.998,6.694-6.694,6.694
	c-3.697,0-6.694-2.997-6.694-6.694C28.758,14.602,31.755,11.605,35.452,11.605z M50.813,16.776
	c-0.561-1.197-1.981-1.714-3.186-1.159c-1.197,0.562-1.714,1.982-1.158,3.186l4.611,9.879c-3.852-0.498-7.688-1.111-11.561-1.403
	c-3.875-0.292-7.721-0.096-11.574,0.321c-1.969,0.211-3.934,0.469-5.896,0.723c-1.053,0.134-2.105,0.273-3.154,0.407l4.609-9.884
	c0.561-1.197,0.043-2.624-1.158-3.186c-1.197-0.56-2.625-0.043-3.187,1.159l-6.438,13.829c-0.369,0.79-0.277,1.719,0.234,2.423
	c0.454,0.623,1.174,0.981,1.936,0.981c0.102,0,0.205-0.007,0.307-0.021l10.521-1.354c0,0.015,0,0.022,0,0.038
	c0,2.111,0.494,4.085,1.354,5.779c0.384,0.751,0.604,1.58,0.666,2.423l0.293,3.94c0.152,2.072-0.11,4.15-0.756,6.104h16.366
	c-0.65-1.952-0.908-4.029-0.756-6.104l0.29-3.94c0.063-0.843,0.283-1.672,0.666-2.423c0.856-1.686,1.353-3.647,1.354-5.751
	l9.601,1.241c0.103,0.014,0.207,0.019,0.31,0.019c0.756,0,1.479-0.356,1.93-0.979c0.52-0.704,0.607-1.633,0.238-2.428L50.813,16.776
	z M35.979,48.969c-1.553,0-2.615-0.914-2.615-2.039s1.06-2.039,2.615-2.039c1.556,0,2.115,0.914,2.115,2.039
	C38.096,48.055,37.529,48.969,35.979,48.969z M33.522,39.799c0-1.053,0.521-1.902,1.973-1.902s2.438,0.853,2.438,1.902
	c0,1.057-0.984,1.906-2.438,1.906C34.044,41.705,33.522,40.854,33.522,39.799z M36.014,34.556c-1.752,0-2.952-1.029-2.952-2.305
	c0-1.271,1.197-2.303,2.952-2.303c1.752,0,2.385,1.03,2.385,2.303C38.396,33.526,37.766,34.556,36.014,34.556z M44.729,52.168
	h-0.638H26.819H26.18c-1.072,0-1.938,0.9-1.938,2.014v4.213h22.425v-4.22C46.667,53.068,45.8,52.168,44.729,52.168z"/>
</svg>
