<?xml version="1.0" encoding="utf-8"?>
<!-- Generator: Adobe Illustrator 16.0.0, SVG Export Plug-In . SVG Version: 6.00 Build 0)  -->
<!DOCTYPE svg PUBLIC "-http://W3Chttp://DTD SVG 1.1http://EN" "http://www.w3.org/Graphics/SVG/1.1/DTD/svg11.dtd">
<svg version="1.1" id="Capa_1" xmlns="http://www.w3.org/2000/svg" xmlns:xlink="http://www.w3.org/1999/xlink" x="0px" y="0px"
	 width="70px" height="70px" viewBox="0 0 70 70" enable-background="new 0 0 70 70" xml:space="preserve">
<circle cx="35.452" cy="18.299" r="6.694"/>
<path d="M50.813,16.776c-0.561-1.197-1.982-1.714-3.186-1.159c-1.197,0.562-1.714,1.982-1.158,3.186l4.611,9.879
	c-3.851-0.498-7.687-1.111-11.56-1.403c-3.875-0.292-7.721-0.096-11.574,0.321c-1.969,0.211-3.934,0.469-5.896,0.723
	c-1.053,0.134-2.105,0.273-3.154,0.407l4.609-9.884c0.561-1.197,0.043-2.624-1.158-3.186c-1.197-0.56-2.625-0.043-3.187,1.159
	l-6.438,13.829c-0.369,0.79-0.277,1.719,0.234,2.423c0.454,0.623,1.174,0.981,1.936,0.981c0.102,0,0.205-0.007,0.307-0.021
	l10.521-1.354c0,0.015,0,0.022,0,0.038c0,2.111,0.494,4.085,1.354,5.779c0.384,0.751,0.604,1.58,0.666,2.423l0.293,3.94
	c0.152,2.073-0.11,4.151-0.756,6.104h16.365c-0.65-1.952-0.908-4.03-0.756-6.104l0.291-3.94c0.063-0.843,0.283-1.672,0.666-2.423
	c0.856-1.686,1.352-3.647,1.354-5.751l9.601,1.241c0.102,0.014,0.207,0.019,0.309,0.019c0.756,0,1.479-0.356,1.93-0.979
	c0.519-0.704,0.607-1.633,0.238-2.428L50.813,16.776z"/>
<path fill="#FFFFFF" d="M35.979,48.969c-1.553,0-2.615-0.914-2.615-2.04c0-1.125,1.06-2.039,2.615-2.039s2.115,0.914,2.115,2.039
	C38.095,48.055,37.53,48.969,35.979,48.969z"/>
<path fill="#FFFFFF" d="M33.522,39.799c0-1.053,0.521-1.903,1.973-1.903c1.452,0,2.438,0.853,2.438,1.903
	c0,1.056-0.984,1.906-2.438,1.906C34.044,41.705,33.522,40.853,33.522,39.799z"/>
<path fill="#FFFFFF" d="M36.013,34.556c-1.752,0-2.951-1.029-2.951-2.305c0-1.271,1.197-2.303,2.951-2.303
	c1.752,0,2.385,1.03,2.385,2.303C38.397,33.526,37.765,34.556,36.013,34.556z"/>
<path d="M44.728,52.168h-0.637H26.819h-0.639c-1.072,0-1.938,0.9-1.938,2.013v4.214h22.425v-4.22
	C46.667,53.068,45.8,52.168,44.728,52.168z"/>
</svg>
