<?xml version="1.0" encoding="utf-8"?>
<!-- Generator: Adobe Illustrator 16.0.0, SVG Export Plug-In . SVG Version: 6.00 Build 0)  -->
<!DOCTYPE svg PUBLIC "-http://W3Chttp://DTD SVG 1.1http://EN" "http://www.w3.org/Graphics/SVG/1.1/DTD/svg11.dtd">
<svg version="1.1" id="Layer_1" xmlns="http://www.w3.org/2000/svg" xmlns:xlink="http://www.w3.org/1999/xlink" x="0px" y="0px"
	 width="50px" height="50px" viewBox="0 0 50 50" enable-background="new 0 0 50 50" xml:space="preserve">
<g>
	<ellipse fill="#FFFFFF" cx="24.767" cy="19.222" rx="1.868" ry="2.103"/>
	<path fill="#FFFFFF" d="M27.451,24.282c1.012-0.506,7.747-3.581,9.07-5.761c0,0-3.973,3.504-11.755,3.504
		c-7.785,0-11.756-3.504-11.756-3.504c1.322,2.18,8.058,5.255,9.07,5.761c-0.468,2.219,0.739,1.868,0.816,2.842
		c0.078,0.974-0.934,1.091-1.011,2.842c-0.079,1.751,2.41,7.667,2.879,12.179v0.006c0-0.002,0-0.002,0.001-0.002v-0.004
		c0.469-4.512,2.958-10.428,2.879-12.179c-0.08-1.751-1.09-1.868-1.013-2.842C26.71,26.15,27.919,26.501,27.451,24.282z"/>
	<path fill="#FFFFFF" d="M24.678,13.02c0-1.613,0.324-2.92,0.324-2.92s0.323,1.307,0.323,2.92c0,0.342-0.017,0.666-0.04,0.971
		c0.445-0.513,1.255-1.622,1.255-2.916c0-1.781-1.538-3.225-1.538-3.225s-1.541,1.443-1.541,3.225c0,1.294,0.812,2.403,1.254,2.916
		C24.693,13.686,24.678,13.361,24.678,13.02z"/>
	<path fill="#FFFFFF" d="M20.613,15.214c-0.109-0.16-0.221-0.331-0.328-0.521c-0.512-0.885-0.747-1.704-0.747-1.704
		s0.592,0.615,1.103,1.499c0.107,0.188,0.201,0.37,0.284,0.545c0.082-0.422,0.176-1.287-0.234-1.998
		c-0.564-0.977-1.865-1.281-1.865-1.281s-0.389,1.28,0.175,2.257C19.411,14.722,20.208,15.072,20.613,15.214z"/>
	<path fill="#FFFFFF" d="M29.389,29.691c0.109,0.16,0.221,0.332,0.328,0.521c0.512,0.884,0.748,1.704,0.748,1.704
		s-0.593-0.614-1.104-1.499c-0.107-0.188-0.202-0.37-0.285-0.545c-0.082,0.423-0.176,1.287,0.236,1.997
		c0.563,0.979,1.864,1.281,1.864,1.281s0.388-1.279-0.178-2.256C30.59,30.184,29.795,29.832,29.389,29.691z"/>
	<path fill="#FFFFFF" d="M16.538,22.271c-0.326-0.28-1.028-0.794-1.848-0.795c-1.13,0.001-2.044,0.976-2.044,0.976
		s0.915,0.976,2.042,0.976c0.821,0,1.523-0.514,1.85-0.795c-0.192,0.016-0.397,0.025-0.614,0.025c-1.021,0-1.851-0.206-1.851-0.206
		s0.829-0.205,1.851-0.206C16.141,22.247,16.344,22.257,16.538,22.271z"/>
	<path fill="#FFFFFF" d="M33.463,22.633c0.326,0.282,1.027,0.795,1.848,0.795c1.129,0,2.043-0.975,2.043-0.975
		s-0.914-0.976-2.043-0.976c-0.818,0-1.521,0.513-1.848,0.794c0.193-0.014,0.396-0.023,0.614-0.023c1.022,0,1.853,0.205,1.853,0.205
		s-0.83,0.206-1.853,0.205C33.859,22.658,33.656,22.648,33.463,22.633z"/>
	<path fill="#FFFFFF" d="M20.639,30.416c-0.509,0.885-1.102,1.499-1.102,1.499s0.235-0.819,0.746-1.705
		c0.109-0.188,0.221-0.358,0.33-0.519c-0.407,0.141-1.202,0.492-1.613,1.203c-0.563,0.977-0.177,2.256-0.177,2.256
		s1.301-0.307,1.865-1.28c0.41-0.711,0.317-1.577,0.236-1.999C20.843,30.045,20.748,30.229,20.639,30.416z"/>
	<path fill="#FFFFFF" d="M29.361,14.488c0.511-0.885,1.103-1.501,1.103-1.501s-0.235,0.821-0.747,1.706
		c-0.107,0.188-0.219,0.359-0.328,0.52c0.406-0.141,1.202-0.492,1.611-1.202c0.563-0.977,0.178-2.258,0.178-2.258
		s-1.302,0.306-1.865,1.282c-0.41,0.711-0.316,1.574-0.234,1.998C29.16,14.857,29.254,14.676,29.361,14.488z"/>
	<path fill="#FFFFFF" d="M14.375,18.096c1.123,0.646,2.488,0.5,3.154,0.372c-0.275-0.132-0.564-0.28-0.859-0.45
		c-1.397-0.808-2.369-1.742-2.369-1.742s1.297,0.373,2.692,1.18c0.297,0.171,0.567,0.348,0.821,0.52
		c-0.222-0.641-0.776-1.897-1.899-2.545c-1.541-0.891-3.563-0.279-3.563-0.279S12.834,17.205,14.375,18.096z"/>
	<path fill="#FFFFFF" d="M35.625,26.811c-1.122-0.646-2.486-0.502-3.152-0.373c0.274,0.133,0.564,0.279,0.858,0.451
		c1.396,0.807,2.368,1.74,2.368,1.74s-1.295-0.373-2.692-1.179c-0.296-0.171-0.567-0.347-0.819-0.521
		c0.223,0.641,0.775,1.896,1.897,2.545c1.543,0.891,3.563,0.278,3.563,0.278S37.166,27.699,35.625,26.811z"/>
	<path fill="#FFFFFF" d="M14.301,28.629c0,0,0.972-0.936,2.368-1.742c0.297-0.171,0.585-0.316,0.86-0.451
		c-0.666-0.127-2.032-0.273-3.153,0.373c-1.543,0.892-2.023,2.945-2.023,2.945s2.021,0.61,3.563-0.279
		c1.122-0.646,1.677-1.904,1.898-2.545c-0.253,0.172-0.524,0.348-0.819,0.521C15.598,28.255,14.301,28.629,14.301,28.629z"/>
	<path fill="#FFFFFF" d="M35.699,16.275c0,0-0.971,0.934-2.367,1.741c-0.295,0.171-0.585,0.319-0.859,0.45
		c0.666,0.129,2.031,0.275,3.151-0.371c1.544-0.892,2.022-2.945,2.022-2.945s-2.02-0.61-3.563,0.279
		c-1.123,0.647-1.678,1.903-1.896,2.543c0.252-0.17,0.521-0.347,0.818-0.518C34.404,16.648,35.699,16.275,35.699,16.275z"/>
</g>
</svg>
